#!OML:ASF H:\Terrain\Patient Classification 1\Terrain2\Thursday\justin.ASF
:FULLY-SPECIFIED
:DEGREES
1374
root 31.2819 17.97 -3.41105 1439.67 -3.05972 359.061
lowerback 5.44276 0.785302 -0.96811
upperback 2.27143 1.01494 1.69282
thorax -0.762429 0.495818 2.22148
lowerneck -14.0809 -2.86088 -10.4063
upperneck 37.0797 -2.9763 5.00899
head 15.7245 -2.04273 3.4905
rclavicle 1.09332e-015 -1.19271e-014
rhumerus -29.639 -10.6221 -79.9417
rradius 30.8215
rwrist -10.794
rhand -18.2596 7.6631
rfingers 7.12502
rthumb 8.01975 -22.1647
lclavicle 1.09332e-015 -1.19271e-014
lhumerus -35.0289 12.1122 80.0832
lradius 29.2854
lwrist 0.748665
lhand -9.8126 28.9124
lfingers 7.12502
lthumb 16.1641 58.2584
rfemur -10.8431 -6.28239 19.6315
rtibia 64.9211
rfoot 5.16983 -8.32125
rtoes 14.5386
lfemur -12.1616 4.39414 -20.6694
ltibia 20.8047
lfoot -8.02985 -14.4927
ltoes 6.05132
1375
root 31.2949 17.9703 -3.31267 1439.5 -2.93666 358.884
lowerback 5.57534 0.718305 -0.756445
upperback 2.27681 0.936797 1.72846
thorax -0.824463 0.457995 2.14245
lowerneck -13.6712 -2.86624 -10.4424
upperneck 36.7792 -3.04288 5.07433
head 15.485 -2.063 3.50288
rclavicle -1.0635e-014 -2.78299e-014
rhumerus -29.6998 -10.5467 -80.0754
rradius 31.1732
rwrist -10.9152
rhand -18.3906 7.55789
rfingers 7.12502
rthumb 7.89333 -22.2747
lclavicle -1.0635e-014 -2.78299e-014
lhumerus -34.8152 11.4136 80.261
lradius 29.7478
lwrist 1.88276
lhand -15.0776 23.516
lfingers 7.12502
lthumb 11.09 53.203
rfemur -11.9037 -6.55825 19.8206
rtibia 65.8635
rfoot 4.40029 -8.26264
rtoes 14.5909
lfemur -11.5471 4.14976 -20.513
ltibia 20.7294
lfoot -8.30564 -14.2917
ltoes 6.19866
1376
root 31.3032 17.9744 -3.2108 1439.39 -2.73954 359.04
lowerback 5.65741 0.630589 -0.906352
upperback 2.20227 0.811911 1.64233
thorax -0.942119 0.39672 2.14473
lowerneck -13.2091 -2.7915 -10.5222
upperneck 36.5572 -3.05299 5.32623
head 15.2707 -2.04388 3.6163
rclavicle 1.06847e-015 -8.34896e-015
rhumerus -29.8289 -10.6498 -80.192
rradius 31.4451
rwrist -10.5853
rhand -19.1507 9.32907
rfingers 7.12502
rthumb 7.15972 -20.5298
lclavicle 1.06847e-015 -8.34896e-015
lhumerus -34.6535 11.1999 80.0542
lradius 30.203
lwrist 1.71607
lhand -15.9885 22.1355
lfingers 7.12502
lthumb 10.2113 51.8677
rfemur -12.9906 -6.95929 19.6557
rtibia 66.6527
rfoot 3.81098 -8.00289
rtoes 12.9256
lfemur -11.0831 4.18442 -20.7179
ltibia 20.7977
lfoot -8.56318 -14.547
ltoes 7.32374
1377
root 31.3128 17.9775 -3.11262 1439.37 -2.61281 359.288
lowerback 5.61431 0.564692 -1.18501
upperback 2.12648 0.709411 1.5772
thorax -0.993819 0.345855 2.24106
lowerneck -13.3495 -2.71581 -10.4422
upperneck 36.8796 -2.97544 5.37936
head 15.4516 -2.00076 3.6505
rclavicle -9.14409e-015 -1.98785e-015
rhumerus -29.883 -10.5881 -80.2659
rradius 31.639
rwrist -10.5319
rhand -19.5239 10.6824
rfingers 7.12502
rthumb 6.79938 -19.1885
lclavicle -9.14409e-015 -1.98785e-015
lhumerus -34.4044 11.3209 79.8201
lradius 30.6474
lwrist 0.803641
lhand -14.6226 23.5153
lfingers 7.12502
lthumb 11.5287 53.1783
rfemur -14.1605 -7.22617 19.4472
rtibia 67.3116
rfoot 3.16109 -7.90506
rtoes 12.0886
lfemur -10.7412 4.03459 -21.0118
ltibia 20.84
lfoot -8.7049 -14.7477
ltoes 8.83234
1378
root 31.3249 17.9806 -3.01584 1439.34 -2.62325 359.221
lowerback 5.57988 0.48645 -1.16082
upperback 2.14043 0.607459 1.64345
thorax -0.955861 0.294313 2.30259
lowerneck -13.5804 -2.66409 -10.3153
upperneck 36.9911 -2.85145 5.21467
head 15.5425 -1.95425 3.5814
rclavicle 5.96354e-016 -2.42517e-014
rhumerus -29.7855 -10.1445 -80.4489
rradius 31.986
rwrist -10.937
rhand -19.7895 10.8597
rfingers 7.12502
rthumb 6.54301 -19.0192
lclavicle 5.96354e-016 -2.42517e-014
lhumerus -34.0387 11.5494 79.7009
lradius 31.1838
lwrist -0.0535458
lhand -13.0058 25.9681
lfingers 7.12502
lthumb 13.0876 55.5375
rfemur -15.2916 -7.20547 19.6243
rtibia 67.8519
rfoot 2.32757 -7.72185
rtoes 11.9757
lfemur -10.3199 3.79564 -20.9605
ltibia 20.8196
lfoot -8.92503 -14.7072
ltoes 9.86993
1379
root 31.3355 17.9726 -2.91702 1439.19 -2.56284 359.42
lowerback 5.62669 0.388364 -1.3573
upperback 2.20081 0.465232 1.5999
thorax -0.913904 0.221729 2.3774
lowerneck -13.5822 -2.61484 -10.232
upperneck 36.8876 -2.74108 5.05254
head 15.475 -1.91572 3.51038
rclavicle 4.27387e-015 6.36111e-015
rhumerus -29.637 -9.75364 -80.6867
rradius 32.2871
rwrist -11.3701
rhand -19.991 10.7007
rfingers 7.12502
rthumb 6.34846 -19.1842
lclavicle 4.27387e-015 6.36111e-015
lhumerus -33.6679 11.6589 79.5721
lradius 31.432
lwrist 0.144441
lhand -11.5076 27.6457
lfingers 7.12502
lthumb 14.5315 57.1168
rfemur -16.3411 -7.33433 19.4078
rtibia 68.3236
rfoot 1.3431 -7.28989
rtoes 11.6942
lfemur -9.77901 3.88991 -21.2334
ltibia 20.8151
lfoot -9.21474 -14.867
ltoes 10.5161
1380
root 31.3436 17.9591 -2.81955 1439.09 -2.38881 359.707
lowerback 5.65461 0.320348 -1.64374
upperback 2.16451 0.358084 1.49203
thorax -0.962032 0.168395 2.43423
lowerneck -13.419 -2.60986 -10.2161
upperneck 36.8942 -2.7832 5.11414
head 15.4437 -1.92537 3.52708
rclavicle 6.08778e-015 7.95139e-016
rhumerus -29.6767 -9.74622 -80.7945
rradius 32.4614
rwrist -11.508
rhand -19.6623 10.7816
rfingers 7.12502
rthumb 6.66586 -19.0935
lclavicle 6.08778e-015 7.95139e-016
lhumerus -33.4412 11.3814 79.5003
lradius 31.5482
lwrist 1.39521
lhand -11.0877 28.4991
lfingers 7.12502
lthumb 14.936 57.9406
rfemur -17.4723 -7.68489 19.1124
rtibia 68.6736
rfoot 0.14103 -7.02043
rtoes 10.2206
lfemur -9.307 3.99235 -21.5973
ltibia 20.7813
lfoot -9.50668 -15.1037
ltoes 10.3983
1381
root 31.3465 17.9569 -2.72067 1439.05 -2.21891 359.542
lowerback 5.63043 0.281485 -1.57476
upperback 2.1678 0.311024 1.54492
thorax -0.942576 0.144721 2.453
lowerneck -13.3038 -2.67556 -10.3062
upperneck 36.7917 -2.94941 5.32977
head 15.3888 -1.97802 3.60491
rclavicle 9.6659e-015 6.36111e-015
rhumerus -29.7096 -9.68422 -80.8786
rradius 32.7389
rwrist -11.6524
rhand -19.3641 11.0152
rfingers 7.12502
rthumb 6.9537 -18.8506
lclavicle 9.6659e-015 6.36111e-015
lhumerus -33.0848 11.0003 79.5657
lradius 31.86
lwrist 2.0656
lhand -12.5869 27.5726
lfingers 7.12502
lthumb 13.4914 57.1156
rfemur -18.5095 -7.80438 19.4915
rtibia 68.8144
rfoot -1.03722 -7.06726
rtoes 7.75377
lfemur -8.8792 4.07096 -21.4125
ltibia 20.7518
lfoot -9.7849 -15.4246
ltoes 10.2042
1382
root 31.3514 17.9551 -2.62232 1439.03 -2.09209 359.617
lowerback 5.55205 0.217749 -1.77841
upperback 2.2342 0.216894 1.60764
thorax -0.826183 0.0946406 2.63857
lowerneck -13.5021 -2.70303 -10.3932
upperneck 36.754 -2.96011 5.37938
head 15.4221 -1.9853 3.63895
rclavicle -4.72114e-015 9.14409e-015
rhumerus -29.6104 -9.28635 -80.9737
rradius 33.1436
rwrist -11.9133
rhand -19.3 11.4676
rfingers 7.12502
rthumb 7.0156 -18.3961
lclavicle -4.72114e-015 9.14409e-015
lhumerus -32.763 8.26047 81.3768
lradius 31.3713
lwrist 12.1299
lhand -26.8967 14.1591
lfingers 7.12502
lthumb -0.320313 44.1386
rfemur -19.539 -7.81935 19.5766
rtibia 68.807
rfoot -1.96435 -7.12123
rtoes 7.26934
lfemur -8.5702 4.07556 -21.5095
ltibia 20.8703
lfoot -9.97197 -15.6126
ltoes 10.3705
